<svg xmlns="http://www.w3.org/2000/svg" xmlns:xlink="http://www.w3.org/1999/xlink" width="107" height="126" viewBox="0 0 107 126">
  <defs fill="#084434">
    <path id="a" d="M66.446,17.08 C67.7557203,17.7477508 68.7440787,18.9114574 69.191,20.312 L96.364,105.079 C96.8152064,106.478403 96.6877328,108.000165 96.01,109.305 C95.3423383,110.614791 94.1785977,111.603178 92.778,112.05 L50.084,125.735 C49.5377619,125.910204 48.9676483,126 48.394,126 C47.524,126 46.657,125.792 45.858,125.381 C44.5482358,124.713576 43.5600883,123.549694 43.114,122.149 L40.326,113.453 C40.3225728,113.4437 40.3192393,113.434367 40.316,113.425 L40.308,113.395 L15.941,37.383 C15.0103533,34.4683579 16.6145193,31.3503889 19.527,30.413 L62.221,16.727 C63.6197854,16.2741799 65.14175,16.4013405 66.446,17.08 L66.446,17.08 Z M91.247,98.62 L43.521,113.92 L45.876,121.263 C46.09,121.932 46.556,122.478 47.186,122.802 C47.816,123.126 48.53,123.186 49.199,122.972 L91.891,109.288 C92.5591497,109.075363 93.113971,108.603405 93.431,107.978 C93.7547535,107.356424 93.8159817,106.63105 93.601,105.964 L91.247,98.62 L91.247,98.62 Z M69.668,31.303 L21.941,46.603 L42.636,111.157 L90.362,95.858 L69.668,31.303 Z M20.118,73.148 C20.9188129,73.148 21.568,73.7971871 21.568,74.598 C21.568,75.3988129 20.9188129,76.048 20.118,76.048 C16.8257728,76.0518573 14.1578573,78.7197728 14.154,82.012 C14.154,82.8128129 13.5048129,83.462 12.704,83.462 C11.9031871,83.462 11.254,82.8128129 11.254,82.012 C11.254,77.125 15.231,73.148 20.118,73.148 Z M1.45,73.148 C6.338,73.148 10.314,77.125 10.314,82.012 C10.314,82.8128129 9.66481289,83.462 8.864,83.462 C8.06318711,83.462 7.414,82.8128129 7.414,82.012 C7.41069365,78.7193823 4.74261708,76.0508584 1.45,76.047 C0.649187113,76.047 7.10542736e-15,75.3978129 7.10542736e-15,74.597 C7.10542736e-15,73.7961871 0.649187113,73.147 1.45,73.147 L1.45,73.148 Z M8.864,61.893 C9.664,61.893 10.314,62.542 10.314,63.343 C10.314,68.23 6.337,72.207 1.45,72.207 C0.649187113,72.207 7.10542736e-15,71.5578129 7.10542736e-15,70.757 C7.10542736e-15,69.9561871 0.649187113,69.307 1.45,69.307 C4.74222717,69.3031427 7.41014267,66.6352272 7.414,63.343 C7.414,62.542 8.063,61.893 8.864,61.893 L8.864,61.893 Z M12.704,61.893 C13.506,61.893 14.154,62.542 14.154,63.343 C14.1573073,66.6360076 16.8259924,69.3046927 20.119,69.308 C20.9198129,69.308 21.569,69.9571871 21.569,70.758 C21.569,71.5588129 20.9198129,72.208 20.119,72.208 C15.231,72.208 11.255,68.23 11.255,63.343 C11.255,62.542 11.904,61.893 12.705,61.893 L12.704,61.893 Z M105.536,44.368 C106.336813,44.368 106.986,45.0171871 106.986,45.818 C106.986,46.6188129 106.336813,47.268 105.536,47.268 C102.242992,47.2713073 99.5743073,49.9399924 99.571,53.233 C99.571,54.0338129 98.9218129,54.683 98.121,54.683 C97.3201871,54.683 96.671,54.0338129 96.671,53.233 C96.671,48.345 100.648,44.368 105.536,44.368 L105.536,44.368 Z M86.866,44.368 C91.754,44.368 95.731,48.345 95.731,53.233 C95.731,54.0338129 95.0818129,54.683 94.281,54.683 C93.4801871,54.683 92.831,54.0338129 92.831,53.233 C92.8276927,49.9399924 90.1590076,47.2713073 86.866,47.268 C86.0651871,47.268 85.416,46.6188129 85.416,45.818 C85.416,45.0171871 86.0651871,44.368 86.866,44.368 Z M63.906,19.363 C63.638,19.363 63.369,19.405 63.106,19.489 L20.413,33.174 C19.0238443,33.6214099 18.2589116,35.1087789 18.703,36.499 L21.056,43.84 L68.784,28.542 L66.43,21.198 C66.2168307,20.5303914 65.7449887,19.976067 65.12,19.659 C64.7454514,19.4649174 64.3298466,19.3634166 63.908,19.363 L63.906,19.363 Z M94.281,33.113 C95.082,33.113 95.731,33.763 95.731,34.563 C95.731,39.451 91.754,43.428 86.866,43.428 C86.0651871,43.428 85.416,42.7788129 85.416,41.978 C85.416,41.1771871 86.0651871,40.528 86.866,40.528 C90.1590076,40.5246927 92.8276927,37.8560076 92.831,34.563 C92.831,33.763 93.48,33.113 94.281,33.113 Z M98.121,33.113 C98.922,33.113 99.571,33.763 99.571,34.563 C99.5743073,37.8560076 102.242992,40.5246927 105.536,40.528 C106.336813,40.528 106.986,41.1771871 106.986,41.978 C106.986,42.7788129 106.336813,43.428 105.536,43.428 C100.648,43.428 96.671,39.451 96.671,34.563 C96.671,33.763 97.32,33.113 98.121,33.113 L98.121,33.113 Z M47.823,30.028 C48.0671984,30.7904136 47.6473074,31.6064704 46.885,31.851 L39.14,34.335 C38.389247,34.5423544 37.6086117,34.1204352 37.3707855,33.3787718 C37.1329593,32.6371084 37.5226624,31.8399016 38.254,31.572 L46,29.09 C46.3661289,28.9724516 46.7639677,29.0052572 47.1058961,29.1811918 C47.4478245,29.3571265 47.7057978,29.6617601 47.823,30.028 L47.823,30.028 Z M64.761,24.598 C65.054,25.509 64.973,26.48 64.535,27.33 C64.1030843,28.1769702 63.349483,28.8152978 62.443,29.102 C61.5392555,29.3935832 60.5564936,29.3122264 59.713,28.876 C58.8661465,28.4436668 58.2276376,27.6902767 57.94,26.784 C57.6470677,25.8797406 57.7284599,24.8958323 58.166,24.052 C58.59831,23.2057294 59.3512776,22.5676334 60.257,22.28 C62.1408799,21.6795037 64.1554281,22.7167455 64.761,24.599 L64.761,24.598 Z M97.108,15.101 C97.9088129,15.101 98.558,15.7501871 98.558,16.551 C98.558,17.3518129 97.9088129,18.001 97.108,18.001 C92.422,18.001 88.608,21.814 88.608,26.5 C88.608,27.3008129 87.9588129,27.95 87.158,27.95 C86.3571871,27.95 85.708,27.3008129 85.708,26.5 C85.708,20.213 90.822,15.1 97.108,15.1 L97.108,15.101 Z M72.058,15.101 C78.344,15.101 83.457,20.213 83.457,26.5 C83.457,27.3008129 82.8078129,27.95 82.007,27.95 C81.2061871,27.95 80.557,27.3008129 80.557,26.5 C80.557,21.814 76.744,18 72.057,18 C71.2561871,18 70.607,17.3508129 70.607,16.55 C70.607,15.7491871 71.2561871,15.1 72.057,15.1 L72.058,15.101 Z M61.348,25.0099998 C61.1307898,25.0113459 60.9271309,25.1157811 60.7992777,25.2913819 C60.6714245,25.4669828 60.6345775,25.6928721 60.7,25.9 C60.8065905,26.2328425 61.1475422,26.4312424 61.4895843,26.3594595 C61.8316265,26.2876766 62.06405,25.9689448 62.0278364,25.6213327 C61.9916228,25.2737205 61.6984933,25.00974 61.349,25.0099998 L61.348,25.0099998 Z M82.009,0 C82.809,0 83.459,0.649 83.459,1.45 C83.459,7.736 78.345,12.849 72.059,12.849 C71.2581871,12.849 70.609,12.1998129 70.609,11.399 C70.609,10.5981871 71.2581871,9.949 72.059,9.949 C76.745,9.949 80.559,6.136 80.559,1.449 C80.559,0.649 81.206,0 82.009,0 Z M87.159,1.77635684e-15 C87.962,1.77635684e-15 88.609,0.649 88.609,1.45 C88.609,6.136 92.423,9.95 97.109,9.95 C97.6359338,9.93615846 98.1288739,10.2093643 98.3964177,10.6635352 C98.6639615,11.117706 98.6639615,11.681294 98.3964177,12.1354648 C98.1288739,12.5896357 97.6359338,12.8628415 97.109,12.849 C90.822,12.849 85.709,7.736 85.709,1.449 C85.709,0.649 86.359,1.77635684e-15 87.159,1.77635684e-15 Z" fill="#084434"/>
  </defs>
  <use fill="#084434" fill-rule="evenodd" xlink:href="#a"/>
</svg>