<svg xmlns="http://www.w3.org/2000/svg" id="Layer_1" viewBox="240.08 376.61 1439.84 326.78">
  <defs>
    <style>
      .cls-1 {
        fill: #004137;
      }
    </style>
  </defs>
  <path class="cls-1" d="M566.8,451.11v178.08h38.65v-178.08h-38.65Z"/>
  <path class="cls-1" d="M730.74,449.09c-29.56,0-50.4,12.77-61.82,36.96l-4.7-34.94h-31.92v178.08h39.64v-88.04c0-55.07,17.66-53.46,58.8-53.42,1.68,0,6.72.22,6.72.22v-38.86h-6.72Z"/>
  <path class="cls-1" d="M854.71,445.73c-28.22,0-51.4,13.78-63.16,34.61l-4.03-29.23h-31.92v252.28h39.98v-99.07c12.1,18.48,33.26,29.91,58.8,29.91,47.37,0,80.64-38.98,80.64-95.09s-33.27-93.41-80.31-93.41ZM845.64,600.29c-42.92,0-50.06-7.8-50.06-62.16s12.79-58.37,49.73-58.37c42.04,0,49.05,6.98,49.05,59.38s-7.01,61.15-48.72,61.15Z"/>
  <path class="cls-1" d="M1048.59,445.74c-17.48,0-33.42,4.94-45.39,14v28.94c4.56-4.65,14.15-8.92,27.3-8.92,30.61,0,40.96,9.03,41.27,52.13v97.32h39.65v-118.55c0-39.98-24.86-64.93-62.83-64.93ZM992.85,529.73h-.03v-60.06h-.01s0-93.06,0-93.06h-39.65v252.61h39.65v-82.47c0-5.92-.04-11.62.04-17.02Z"/>
  <path class="cls-1" d="M1220.95,445.73c-52.08,0-91.39,34.61-91.39,92.74,0,55.1,33.6,95.76,91.39,95.76,53.09,0,91.06-35.62,91.06-95.76,0-52.42-33.6-92.74-91.06-92.74ZM1220.95,600.29c-40.81,0-51.07-4.4-51.07-61.82s10.39-58.72,51.07-58.72,50.74,4.17,50.74,58.72-9.85,61.82-50.74,61.82Z"/>
  <path class="cls-1" d="M330.43,410.75h35.8v-33.46h-38.48c-36.81,0-56.55,18.07-56.55,51.53v22.29h-31.12v31.46h31.12v146.52h39.49v-146.52h51.53v-31.46h-51.53v-19.61c0-13.39,7.02-20.75,19.74-20.75Z"/>
  <rect class="cls-1" x="566.87" y="377.19" width="38.58" height="39.58"/>
  <path class="cls-1" d="M1425.57,445.74c-26.54,0-49.05,13.1-60.14,31.58l-3.36-26.21h-31.92v178.08h39.65v-101.48c0-48.13,22.3-47.95,40.68-47.95,24.85,0,38.28,7.57,38.28,49.97v99.46h39.64v-117.93c0-39.99-24.86-65.52-62.83-65.52Z"/>
  <path class="cls-1" d="M1546.19,548.21h133.73v-9.41c-1.01-57.79-34.61-93.07-85.01-93.07s-88.37,36.29-88.37,95.09c0,54.43,37.3,93.41,91.73,93.41,42,0,71.9-23.19,80.98-61.49h-38.64c-4.22,22.76-15.25,27.54-45.24,27.54-12.24,0-21.64-.56-28.77-2.97h-.01c-14.33-4.83-19.55-17.25-20.4-48.61,0-.03,0-.05,0-.07v-.42ZM1546.61,520.75c2.43-39.79,18.59-39.79,43.52-40.94.51-.02,3.68-.08,4.78-.05,27.23.84,42.08,2.48,44.02,40.99h-92.32Z"/>
  <path class="cls-1" d="M366.3,579.7c.34-41.63,41.63-50.36,76.22-54.39,26.86-3.02,48-4.06,47.01-18.13-1.28-18.15-12.07-27.01-36.6-27.42-23.72-.4-38.33,2.7-42.64,29.77h-39.95c3.69-37.6,37.27-63.79,83.27-63.79s74.54,26.19,74.54,64.13v80.58c0,5.04,2.69,7.72,8.73,7.72h9.74v30.89h-18.8c-18.13,0-29.21-7.39-32.23-20.82-.67-1.68-1.34-4.03-1.68-6.04-10.41,19.14-29.88,32.03-60.1,32.03-40.96,0-67.82-21.29-67.49-54.53ZM491.45,562.28c.69-10.45.66-25.45.66-25.45-6.72,10.41-26.43,13.33-45.24,15.68-22.16,2.69-40.63,5.71-40.63,24.51,0,15.44,12.03,23.96,35.59,23.27,27.74-.81,47.05.64,49.61-38.01Z"/>
</svg>