<svg width="48" height="48" viewBox="0 0 48 48" fill="none" xmlns="http://www.w3.org/2000/svg">
<mask id="mask0_1576_6694" style="mask-type:alpha" maskUnits="userSpaceOnUse" x="0" y="0" width="48" height="48">
<rect width="48" height="48" fill="#00433D"/>
</mask>
<g mask="url(#mask0_1576_6694)">
<path d="M18.8064 30.5259L24 26.6193L29.0869 30.4852L27.1344 24.2394L32.4101 20.1623H26.0592L24 13.8763L21.9408 20.1623H15.5899L20.7589 24.2394L18.8064 30.5259ZM24 44C19.386 42.7545 15.5659 40.0661 12.5397 35.935C9.51324 31.8038 8 27.1852 8 22.0792V9.92907L24 4L40 9.92907V22.0792C40 27.1852 38.4868 31.8038 35.4603 35.935C32.4341 40.0661 28.614 42.7545 24 44ZM24 40.662C27.6978 39.5005 30.7556 37.1777 33.1733 33.6934C35.5911 30.2091 36.8 26.3377 36.8 22.0792V12.1015L24 7.37025L11.2 12.1015V22.0792C11.2 26.3377 12.4089 30.2091 14.8267 33.6934C17.2444 37.1777 20.3022 39.5005 24 40.662Z" fill="#00433D"/>
</g>
</svg>