<svg width="38" height="39" viewBox="0 0 38 39" fill="none" xmlns="http://www.w3.org/2000/svg">
<path d="M1 2.5L1 36.5C1 37.0523 1.44772 37.5 2.00001 37.5L15.1579 37.4999C15.7102 37.4999 16.1579 37.0522 16.1579 36.4999V2.5C16.1579 1.94772 15.7102 1.5 15.1579 1.5H2C1.44772 1.5 1 1.94772 1 2.5Z" stroke="#00433D" stroke-width="2"/>
<path d="M21.8418 2.50226V15.6602C21.8418 16.2124 22.2895 16.6602 22.8418 16.6602L35.9997 16.6601C36.552 16.6601 36.9997 16.2124 36.9997 15.6601V2.50226C36.9997 1.94998 36.552 1.50226 35.9997 1.50226H22.8418C22.2895 1.50226 21.8418 1.94998 21.8418 2.50226Z" stroke="#00433D" stroke-width="2"/>
<path d="M21.8418 23.3421V36.5C21.8418 37.0523 22.2895 37.5 22.8418 37.5L35.9997 37.5C36.552 37.5 36.9997 37.0522 36.9997 36.5V23.3421C36.9997 22.7898 36.552 22.3421 35.9997 22.3421H22.8418C22.2895 22.3421 21.8418 22.7898 21.8418 23.3421Z" fill="#00433D" stroke="#00433D" stroke-width="2"/>
</svg>