<svg xmlns="http://www.w3.org/2000/svg" viewBox="-1060 10685 24 24">
  <defs>
    <style>
      .cls-1 {
        opacity: 0.653;
      }

      .cls-2 {
        fill: #fff;
        stroke: #95989a;
        opacity: 0;
      }

      .cls-3 {
        stroke: none;
      }

      .cls-4 {
        fill: none;
      }
    </style>
  </defs>
  <g id="magnifying_glass" class="cls-1" transform="translate(-1116.343 10623.702)">
    <path id="Path_447" data-name="Path 447" d="M65.586,63.3a7.251,7.251,0,1,0,5.12,2.124A7.221,7.221,0,0,0,65.586,63.3Zm0,11.976a4.738,4.738,0,1,1,3.346-1.388A4.718,4.718,0,0,1,65.586,75.274Z" transform="translate(0 0)"/>
    <path id="Path_448" data-name="Path 448" d="M79.781,83.264,77.126,80.6l-2.655-2.665a1.256,1.256,0,0,0-1.778,1.773l2.655,2.664L78,85.035a1.265,1.265,0,0,0,.416.277,1.255,1.255,0,0,0,1.362-2.048Z" transform="translate(-1.6 -1.632)"/>
    <g id="Rectangle_360" data-name="Rectangle 360" class="cls-2" transform="translate(56.343 61.298)">
      <rect class="cls-3" width="24" height="24"/>
      <rect class="cls-4" x="0.5" y="0.5" width="23" height="23"/>
    </g>
  </g>
</svg>