<svg width="16" height="16" viewBox="0 0 16 16" fill="none" xmlns="http://www.w3.org/2000/svg">
<g opacity="0.5">
<path fill-rule="evenodd" clip-rule="evenodd" d="M16 8C16 12.4183 12.4183 16 8 16C3.58172 16 0 12.4183 0 8C0 3.58172 3.58172 0 8 0C12.4183 0 16 3.58172 16 8ZM9.85891 3.77858C9.97116 4.38517 10.3306 4.90525 10.829 5.22966C11.1761 5.45623 11.5901 5.58806 12.034 5.58806V7.17817C11.2101 7.17817 10.4459 6.91452 9.82183 6.46653V9.69825C9.82183 11.3121 8.50875 12.6251 6.89495 12.6251C6.27085 12.6251 5.6931 12.4284 5.2173 12.0947C4.46241 11.5654 3.96807 10.689 3.96807 9.69825C3.96807 8.08445 5.28115 6.77137 6.89495 6.77137C7.02883 6.77137 7.16066 6.7827 7.28939 6.80021V8.42328C7.16478 8.38414 7.03295 8.36149 6.89495 8.36149C6.15757 8.36149 5.55818 8.96087 5.55818 9.69825C5.55818 10.2111 5.84964 10.6581 6.27497 10.8816C6.46035 10.9794 6.67147 11.035 6.89495 11.035C7.61586 11.035 8.20288 10.4624 8.22966 9.74871L8.23172 3.37487H9.82183C9.82183 3.51288 9.83419 3.64779 9.85891 3.77858Z" fill="white"/>
</g>
</svg>
