<svg width="48" height="48" viewBox="0 0 48 48" fill="none" xmlns="http://www.w3.org/2000/svg">
<mask id="mask0_1576_6719" style="mask-type:alpha" maskUnits="userSpaceOnUse" x="0" y="0" width="48" height="48">
<rect width="48" height="48" fill="#D9D9D9"/>
</mask>
<g mask="url(#mask0_1576_6719)">
<path d="M17.8848 29.5C14.6904 29.5 11.9753 28.382 9.73927 26.146C7.50293 23.9097 6.38477 21.1943 6.38477 18C6.38477 17.4443 6.42527 16.8888 6.50627 16.3335C6.58693 15.7778 6.7221 15.2448 6.91177 14.7345C7.0401 14.4268 7.21327 14.1993 7.43127 14.052C7.64893 13.9047 7.89493 13.7977 8.16927 13.731C8.44393 13.6643 8.72027 13.6693 8.99827 13.746C9.2766 13.823 9.52977 13.9757 9.75777 14.204L15.0848 19.4925L19.3773 15.2L14.1078 9.9115C13.8798 9.68317 13.7273 9.4255 13.6503 9.1385C13.5733 8.8515 13.5681 8.572 13.6348 8.3C13.7014 8.02833 13.8118 7.7835 13.9658 7.5655C14.1194 7.3475 14.3438 7.17433 14.6388 7.046C15.1491 6.84367 15.6799 6.702 16.2313 6.621C16.7823 6.54033 17.3334 6.5 17.8848 6.5C21.0794 6.5 23.7948 7.618 26.0308 9.854C28.2668 12.0903 29.3848 14.8057 29.3848 18C29.3848 18.8437 29.3053 19.6295 29.1463 20.3575C28.9873 21.0858 28.7488 21.7898 28.4308 22.4695L39.3003 33.277C40.1386 34.112 40.5578 35.1342 40.5578 36.3435C40.5578 37.5528 40.1399 38.5768 39.3043 39.4155C38.4686 40.2538 37.4456 40.673 36.2353 40.673C35.0249 40.673 34.0004 40.2435 33.1618 39.3845L22.3543 28.546C21.6489 28.8513 20.9321 29.0867 20.2038 29.252C19.4751 29.4173 18.7021 29.5 17.8848 29.5ZM17.8848 26.5C18.7601 26.5 19.6354 26.3698 20.5108 26.1095C21.3858 25.8495 22.1861 25.4425 22.9118 24.8885L35.3313 37.308C35.5746 37.5513 35.8796 37.668 36.2463 37.658C36.6129 37.6477 36.9181 37.5207 37.1618 37.277C37.4054 37.0333 37.5273 36.7282 37.5273 36.3615C37.5273 35.9948 37.4054 35.6897 37.1618 35.446L24.7428 23.0575C25.3041 22.3652 25.7181 21.5773 25.9848 20.694C26.2514 19.8107 26.3848 18.9127 26.3848 18C26.3848 15.782 25.5924 13.8192 24.0078 12.1115C22.4231 10.4038 20.4179 9.56667 17.9923 9.6L22.3273 13.9345C22.6886 14.2962 22.8693 14.718 22.8693 15.2C22.8693 15.682 22.6886 16.1038 22.3273 16.4655L16.3503 22.4425C15.9886 22.8038 15.5668 22.9845 15.0848 22.9845C14.6028 22.9845 14.1809 22.8038 13.8193 22.4425L9.48477 18.1075C9.48977 20.6742 10.3526 22.7147 12.0733 24.229C13.7939 25.743 15.7311 26.5 17.8848 26.5Z" fill="#00433D"/>
</g>
</svg>