<svg width="48" height="48" viewBox="0 0 48 48" fill="none" xmlns="http://www.w3.org/2000/svg">
<mask id="mask0_1576_6708" style="mask-type:alpha" maskUnits="userSpaceOnUse" x="0" y="0" width="48" height="48">
<rect width="48" height="48" fill="#00433D"/>
</mask>
<g mask="url(#mask0_1576_6708)">
<path d="M24 43.154C22.9897 43.154 22.1185 42.804 21.3865 42.104C20.6545 41.404 20.2565 40.5488 20.1925 39.5385H27.8075C27.7435 40.5488 27.3455 41.404 26.6135 42.104C25.8815 42.804 25.0103 43.154 24 43.154ZM18 36.769C17.5743 36.769 17.218 36.6255 16.931 36.3385C16.6437 36.0512 16.5 35.6947 16.5 35.269C16.5 34.8433 16.6437 34.487 16.931 34.2C17.218 33.9127 17.5743 33.769 18 33.769H30C30.4257 33.769 30.782 33.9127 31.069 34.2C31.3563 34.487 31.5 34.8433 31.5 35.269C31.5 35.6947 31.3563 36.0512 31.069 36.3385C30.782 36.6255 30.4257 36.769 30 36.769H18ZM16.8075 31C14.7128 29.6973 13.0547 27.9953 11.833 25.894C10.611 23.793 10 21.495 10 19C10 15.1027 11.359 11.795 14.077 9.077C16.795 6.359 20.1027 5 24 5C27.8973 5 31.205 6.359 33.923 9.077C36.641 11.795 38 15.1027 38 19C38 21.495 37.389 23.793 36.167 25.894C34.9453 27.9953 33.2872 29.6973 31.1925 31H16.8075ZM17.7 28H30.3C31.8 26.9333 32.9583 25.6167 33.775 24.05C34.5917 22.4833 35 20.8 35 19C35 15.9333 33.9333 13.3333 31.8 11.2C29.6667 9.06667 27.0667 8 24 8C20.9333 8 18.3333 9.06667 16.2 11.2C14.0667 13.3333 13 15.9333 13 19C13 20.8 13.4083 22.4833 14.225 24.05C15.0417 25.6167 16.2 26.9333 17.7 28Z" fill="#00433D"/>
</g>
</svg>