<?xml version="1.0" standalone="no"?>
<!DOCTYPE svg PUBLIC "-//W3C//DTD SVG 20010904//EN"
 "http://www.w3.org/TR/2001/REC-SVG-20010904/DTD/svg10.dtd">
<svg version="1.0" xmlns="http://www.w3.org/2000/svg"
 width="120.000000pt" height="122.000000pt" viewBox="0 0 120.000000 122.000000"
 preserveAspectRatio="xMidYMid meet">

<g transform="translate(0.000000,122.000000) scale(0.100000,-0.100000)"
fill="#000000" stroke="none">
<path d="M119 1081 l-29 -29 0 -442 c0 -471 1 -484 49 -510 13 -6 176 -10 456
-10 465 0 479 1 505 49 6 13 10 179 10 466 l0 447 -29 29 -29 29 -452 0 -452
0 -29 -29z m501 -246 c0 -107 3 -195 6 -195 4 0 33 16 66 36 l59 36 60 -36
c33 -20 62 -36 65 -36 2 0 5 87 6 193 l3 192 49 3 c27 2 60 1 73 -3 l23 -5 0
-413 c0 -308 -3 -416 -12 -425 -17 -17 -819 -17 -836 0 -9 9 -12 115 -12 414
0 221 3 409 6 418 5 14 35 16 225 16 l219 0 0 -195z"/>
</g>
</svg>
